<svg width="74" height="45" viewBox="0 0 74 45" fill="none" xmlns="http://www.w3.org/2000/svg">
<path d="M8.45341 38.385C7.53961 38.471 7.27463 37.5386 8.028 37.255C14.1409 35.8999 21.1562 32.829 21.7146 27.4579C22.1801 22.9821 18.7111 21.5355 13.2727 19.8842C6.79733 17.7631 3.27962 15.0447 3.81949 9.85273C4.37799 4.48169 8.92396 0.792067 15.7273 1.49949C23.9629 2.35585 28.966 9.93393 27.9979 19.2437C26.6947 31.7762 16.9682 36.5558 8.45341 38.385ZM52.0581 42.9191C51.1444 43.0051 50.8794 42.0727 51.6327 41.7891C57.7457 40.434 64.7609 37.3631 65.3194 31.9921C65.7848 27.5162 62.3158 26.0697 56.8774 24.4183C50.4021 22.2973 46.8844 19.5789 47.4242 14.3869C47.9827 9.01581 52.5287 5.32619 59.332 6.03361C67.5676 6.88997 72.5707 14.4681 71.6026 23.7779C70.2995 36.3103 60.573 41.09 52.0581 42.9191Z" fill="black"/>
</svg>
