<svg  viewBox="0 0 26 15" fill="none" xmlns="http://www.w3.org/2000/svg">
<path d="M3.5908 14.1643C3.26661 14.2292 3.13693 13.905 3.39629 13.7753C5.53595 13.0621 7.93498 11.7005 7.93498 9.75531C7.93498 8.13435 6.63821 7.74532 4.62822 7.35629C2.22919 6.83758 0.867587 5.99468 0.867587 4.11437C0.867587 2.16921 2.35887 0.677927 4.82273 0.677927C7.8053 0.677927 9.88013 3.20663 9.88013 6.57823C9.88013 11.1169 6.57337 13.1917 3.5908 14.1643ZM19.3825 14.1643C19.0583 14.2292 18.9286 13.905 19.188 13.7753C21.3277 13.0621 23.7267 11.7005 23.7267 9.75531C23.7267 8.13435 22.4299 7.74532 20.4199 7.35629C18.0209 6.83758 16.6593 5.99468 16.6593 4.11437C16.6593 2.16921 18.1506 0.677927 20.6144 0.677927C23.597 0.677927 25.6718 3.20663 25.6718 6.57823C25.6718 11.1169 22.3651 13.1917 19.3825 14.1643Z" />
</svg>
