<svg width="401" height="169" viewBox="0 0 401 169" fill="none" xmlns="http://www.w3.org/2000/svg">
<mask id="mask0_8797_5731" style="mask-type:alpha" maskUnits="userSpaceOnUse" x="0" y="0" width="401" height="169">
<rect y="0.84375" width="401" height="168" fill="#D9D9D9"/>
</mask>
<g mask="url(#mask0_8797_5731)">
<path d="M138.599 118.831L138.358 118.59L138.117 118.831C121.457 135.491 94.4445 135.491 77.784 118.831L77.6842 118.731L77.5431 118.731C66.2674 118.731 58.8633 110.332 56.8084 100.575C54.7533 90.817 58.0749 79.8109 68.1558 74.6484L68.3834 74.5318L68.335 74.2807C64.5381 54.5852 70.373 42.7812 79.135 35.9888C87.9284 29.172 99.7335 27.3534 107.933 27.7838L108.084 27.7918L108.192 27.6845C124.852 11.024 151.864 11.024 168.524 27.6842L168.765 27.9251L169.006 27.6842L169.008 27.6827C185.668 11.0239 212.68 11.0244 229.34 27.6847L229.581 27.9255L229.821 27.6847C246.482 11.0241 273.494 11.0242 290.154 27.6844L290.389 27.9194L290.63 27.6902C297.501 21.1484 306.325 18.9708 314.28 19.8625C322.245 20.7555 329.288 24.7182 332.626 30.3931L332.725 30.5611L332.92 30.5611C342.742 30.561 350.031 33.268 354.456 38.7767C358.885 44.2911 360.509 52.694 358.811 64.2339L358.794 64.3523L358.854 64.4555C362.941 71.4363 365.989 77.5184 366.821 83.8753C367.651 90.2145 366.281 96.866 361.443 104.987C356.657 113.018 346.564 116.476 337.564 117.908C333.077 118.622 328.891 118.828 325.826 118.855C324.294 118.869 323.043 118.838 322.176 118.803C321.742 118.786 321.405 118.768 321.176 118.755C321.061 118.748 320.974 118.742 320.916 118.738L320.85 118.733L320.834 118.732L320.83 118.732L320.829 118.732C320.829 118.732 320.829 118.732 320.803 119.071L320.829 118.732L320.673 118.719L320.562 118.83C303.902 135.491 276.889 135.491 260.229 118.83L259.988 118.59L259.747 118.83C243.087 135.491 216.075 135.491 199.414 118.83L199.173 118.589L198.932 118.83C182.272 135.491 155.26 135.491 138.599 118.831Z" fill="white" stroke="#999999" stroke-width="0.681265"/>
</g>
</svg>
