<svg width="302" height="128" viewBox="0 0 302 128" fill="none" xmlns="http://www.w3.org/2000/svg">
<path d="M60.3449 107.928L59.9413 107.525L59.3757 107.6C43.4238 109.734 32.3158 106.369 25.2054 100.176C18.0862 93.9762 14.7866 84.7791 14.7868 74.872L14.7868 74.2971L14.328 73.9508C1.8744 64.5492 -0.347071 53.1875 2.28979 44.2459C4.97086 35.1544 12.5973 28.6312 19.9222 28.6312L20.6293 28.6312L20.9504 28.0012C27.0328 16.0704 40.0757 7.88836 54.6875 5.71671C69.2748 3.54872 85.2783 7.3975 97.2222 19.3413L98.0383 20.1575L98.8544 19.3413C122.877 -4.68142 161.825 -4.6815 185.848 19.3413L186.665 20.1574L187.481 19.3413C211.503 -4.68148 250.451 -4.6815 274.474 19.3408L275.29 20.157L275.766 19.681C284.013 19.8339 290.346 23.9795 294.601 30.2248C298.957 36.6185 301.12 45.2072 300.799 53.8477C300.478 62.485 297.68 71.063 292.253 77.4601C286.851 83.8283 278.788 88.106 267.746 88.1067L266.387 88.1068L266.607 89.4479C267.326 93.8267 266.679 99.8764 262.644 104.046C258.66 108.163 251.035 110.785 237.036 107.619L236.416 107.478L235.966 107.928C211.943 131.951 172.994 131.951 148.971 107.928L148.155 107.112L147.339 107.928C123.316 131.951 84.3679 131.951 60.3449 107.928Z" stroke="white" stroke-width="2.30837"/>
</svg>
