<svg width="62" height="42" viewBox="0 0 62 42" fill="none" xmlns="http://www.w3.org/2000/svg">
<path d="M18.1254 2.80173C19.0127 2.56708 19.427 3.44342 18.7304 3.84672C12.9224 6.18586 6.52774 10.725 6.82461 15.5759C7.0665 19.5285 11.0741 20.1849 16.7096 20.922C23.4452 21.9525 27.0237 24.4386 27.3426 29.6488C27.6724 35.0387 23.826 39.9629 16.9988 40.3807C8.73426 40.8865 2.42052 34.9611 1.84877 25.6186C1.0791 13.0421 10.0258 6.00246 18.1254 2.80173ZM52.0819 0.723631C52.9692 0.488983 53.3835 1.36532 52.6868 1.76863C46.8789 4.10777 40.4842 8.64686 40.7811 13.4978C41.023 17.4504 45.0306 18.1068 50.6661 18.8439C57.4016 19.8744 60.9802 22.3605 61.299 27.5707C61.6289 32.9607 57.7825 37.8848 50.9553 38.3026C42.6907 38.8084 36.344 32.344 35.7723 23.0015C35.0026 10.425 43.9823 3.92437 52.0819 0.723631Z" fill="black"/>
</svg>
