<svg viewBox="0 0 22 15" fill="none" xmlns="http://www.w3.org/2000/svg">
<path d="M6.37723 0.945893C6.70143 0.881052 6.8311 1.20525 6.57175 1.33492C4.43208 2.04814 2.03306 3.53943 2.03306 5.29007C2.03306 6.71651 3.4595 7.04071 5.4695 7.42973C7.86852 7.94844 9.10045 8.92102 9.10045 10.8013C9.10045 12.7465 7.60916 14.4323 5.1453 14.4323C2.16273 14.4323 0.0230658 12.1629 0.0230658 8.79134C0.0230658 4.25265 3.39467 1.91847 6.37723 0.945893ZM18.6317 0.945893C18.9559 0.881052 19.0856 1.20525 18.8262 1.33492C16.6865 2.04814 14.2875 3.53943 14.2875 5.29007C14.2875 6.71651 15.714 7.04071 17.724 7.42973C20.123 7.94844 21.3549 8.92102 21.3549 10.8013C21.3549 12.7465 19.8636 14.4323 17.3998 14.4323C14.4172 14.4323 12.2775 11.9684 12.2775 8.59683C12.2775 4.05814 15.6491 1.91847 18.6317 0.945893Z" />
</svg>
